<?xml version="1.0" standalone="no"?>
<!DOCTYPE svg PUBLIC "-//W3C//DTD SVG 20010904//EN"
 "http://www.w3.org/TR/2001/REC-SVG-20010904/DTD/svg10.dtd">
<svg version="1.0" xmlns="http://www.w3.org/2000/svg"
 width="907.000000pt" height="1280.000000pt" viewBox="0 0 907.000000 1280.000000"
 preserveAspectRatio="xMidYMid meet">
<metadata>
Created by potrace 1.15, written by Peter Selinger 2001-2017
</metadata>
<g transform="translate(0.000000,1280.000000) scale(0.100000,-0.100000)"
fill="black" stroke="none">
<path d="M4185 12781 c-127 -12 -182 -22 -219 -39 -27 -12 -63 -22 -80 -22
-41 0 -69 -15 -179 -99 -126 -95 -146 -118 -359 -411 -113 -156 -155 -232
-225 -405 l-44 -110 3 -165 3 -164 -95 -74 c-52 -40 -120 -86 -151 -102 -94
-48 -248 -97 -415 -130 -298 -59 -551 -133 -697 -206 -269 -133 -655 -459
-776 -654 -79 -128 -262 -501 -405 -823 l-127 -288 19 -24 c19 -24 19 -25 -20
-137 -22 -62 -53 -171 -69 -243 -32 -141 -72 -258 -185 -545 -59 -152 -78
-213 -102 -340 -45 -231 -56 -322 -56 -465 -1 -115 2 -136 22 -180 27 -59 73
-109 122 -135 19 -10 134 -119 255 -242 l221 -223 18 -175 c9 -96 27 -213 39
-260 15 -59 22 -112 21 -174 -1 -87 -2 -90 -62 -215 -53 -109 -63 -138 -73
-216 -14 -120 -3 -284 28 -415 25 -103 25 -108 14 -268 l-11 -164 31 -39 c17
-22 64 -62 103 -88 40 -27 102 -75 139 -106 l67 -57 -6 -53 c-6 -53 -6 -54 41
-104 54 -57 132 -111 162 -111 11 0 27 10 35 22 l15 22 51 -42 c64 -54 138
-134 212 -233 36 -46 94 -104 147 -146 97 -78 122 -92 203 -118 30 -9 91 -37
135 -60 44 -24 118 -57 165 -75 47 -17 99 -38 115 -45 53 -23 210 -157 277
-236 62 -73 65 -80 71 -140 16 -163 90 -464 203 -824 54 -170 71 -292 55 -393
-18 -118 -14 -187 15 -252 33 -74 30 -135 -16 -354 l-33 -159 18 -101 c31
-170 30 -210 -4 -351 -23 -92 -31 -150 -31 -214 0 -65 -9 -122 -34 -225 -23
-94 -30 -139 -22 -141 6 -2 200 -6 431 -9 432 -7 1166 -20 1660 -32 l280 -6
18 65 c15 57 16 83 6 228 -11 169 -4 285 26 430 17 79 57 334 80 504 9 66 25
156 35 200 11 44 36 181 56 305 30 189 44 246 85 360 63 174 127 388 139 465
14 87 60 637 61 720 1 142 -89 352 -193 452 -18 17 -279 226 -580 465 -446
355 -561 451 -626 525 l-81 91 187 52 c393 108 634 184 672 209 21 14 63 53
93 86 49 55 58 71 92 180 20 66 39 148 42 181 5 55 2 68 -23 114 -32 59 -58
74 -144 84 -44 5 -86 0 -205 -29 -141 -33 -159 -35 -323 -35 -198 0 -227 8
-268 70 l-25 37 16 103 c9 57 17 105 18 106 1 1 92 56 202 123 l200 122 185
-9 c217 -10 203 -14 401 104 l125 74 124 -25 c131 -27 203 -31 245 -15 25 10
27 13 21 58 -18 150 -19 192 -4 192 18 0 65 64 106 145 17 33 67 99 111 147
55 58 81 94 81 110 0 21 -25 66 -76 136 -11 15 -14 26 -8 30 6 4 177 115 380
246 203 132 495 324 649 426 379 253 679 413 920 493 122 41 225 67 364 92
222 40 222 40 316 156 33 40 76 91 96 113 l37 40 52 -12 c28 -7 62 -12 76 -12
35 0 203 70 213 89 12 21 12 186 0 232 -12 48 -42 73 -119 99 -35 12 -79 35
-97 51 -19 16 -37 29 -42 29 -11 0 -36 -30 -54 -66 -13 -24 -27 -33 -74 -47
l-58 -16 -32 31 c-38 37 -53 30 -53 -26 l0 -42 -56 -18 c-31 -10 -57 -16 -58
-14 -1 2 -10 15 -19 31 -27 42 -55 36 -69 -16 -10 -40 -16 -45 -65 -64 l-54
-22 -37 25 c-48 33 -72 28 -97 -20 -15 -29 -31 -43 -60 -53 -38 -13 -40 -12
-71 18 -45 44 -77 38 -84 -16 -5 -36 -8 -41 -42 -49 -27 -7 -58 -5 -114 8 -42
9 -80 14 -83 11 -3 -4 -10 -19 -16 -34 -5 -15 -39 -74 -73 -133 l-64 -105
-156 -89 c-87 -48 -458 -264 -827 -479 -669 -391 -937 -545 -949 -545 -3 0 -6
37 -6 83 0 86 -19 167 -48 200 -39 44 -128 3 -150 -70 -13 -45 -30 -164 -40
-283 l-7 -84 -320 -193 c-370 -223 -350 -217 -458 -137 -44 33 -82 74 -116
124 -46 67 -51 81 -51 128 0 65 13 158 45 317 14 66 43 237 65 380 23 143 43
261 46 264 2 2 29 6 59 9 44 4 58 9 67 26 15 27 15 156 -2 331 l-13 140 31 70
c81 187 102 253 102 324 0 46 8 97 24 148 36 115 46 183 46 315 0 107 2 124
25 168 14 28 27 50 29 50 2 0 21 -17 42 -39 36 -35 46 -39 124 -50 47 -6 97
-14 113 -17 18 -4 27 -1 27 8 0 14 -25 63 -53 101 -18 25 -67 219 -67 265 0
38 25 86 73 140 44 49 120 170 171 270 19 37 33 105 61 284 20 130 47 276 60
324 34 121 54 431 37 568 -19 150 -69 353 -106 431 -80 167 -321 556 -360 581
-62 41 -175 78 -366 121 -146 33 -225 35 -435 14z"/>
</g>
</svg>
